<svg width="512" height="512" viewBox="0 0 512 512" fill="none" xmlns="http://www.w3.org/2000/svg">
<path d="M333.39 171.195L333.755 172.169H334.795H490.665C494.588 172.168 498.423 173.331 501.684 175.511C504.946 177.69 507.488 180.788 508.989 184.413L510.375 183.839L508.989 184.413C510.491 188.037 510.885 192.025 510.121 195.872C509.356 199.72 507.468 203.254 504.694 206.028L385.234 325.488L384.634 326.089L384.84 326.912L424.549 485.849C425.52 489.78 425.265 493.914 423.818 497.696C422.372 501.478 419.802 504.727 416.455 507.006C413.108 509.286 409.144 510.486 405.095 510.447C401.045 510.407 397.105 509.13 393.803 506.786L256.877 408.998L256.005 408.376L255.133 408.998L118.207 506.786C114.905 509.13 110.964 510.407 106.915 510.447C102.866 510.486 98.9016 509.286 95.5546 507.006C92.2076 504.727 89.6381 501.478 88.1913 497.696C86.7448 493.915 86.4898 489.782 87.4604 485.851C87.4606 485.85 87.4608 485.849 87.461 485.849L127.17 326.912L127.376 326.089L126.775 325.488L7.3155 206.028L7.31498 206.028C4.53948 203.255 2.64883 199.721 1.88225 195.874C1.11566 192.026 1.5076 188.037 3.00847 184.413C4.50934 180.788 7.05169 177.69 10.3138 175.51C13.576 173.331 17.4113 172.168 21.3345 172.169H21.3348H177.215H178.254L178.619 171.196L237.459 14.3757L237.46 14.3749C238.876 10.5934 241.413 7.33431 244.731 5.03355C248.05 2.7328 251.992 1.5 256.03 1.5C260.068 1.5 264.01 2.7328 267.328 5.03355C270.647 7.33431 273.184 10.5934 274.6 14.3749L274.6 14.3754L333.39 171.195Z" fill="black" stroke="black" stroke-width="3"/>
</svg>
