<svg width="16" height="13" viewBox="0 0 16 13" fill="none" xmlns="http://www.w3.org/2000/svg">
<path d="M14.8642 11.0439C14.9579 11.1221 15.0048 11.2158 15.0048 11.3252C15.0048 11.4189 14.9735 11.5049 14.911 11.583L14.6767 11.8643C14.6142 11.958 14.5204 12.0049 14.3954 12.0049C14.3017 12.0049 14.2235 11.9736 14.161 11.9111L0.145409 0.96582C0.0516586 0.887695 0.00478363 0.793945 0.00478363 0.68457C0.00478363 0.59082 0.0360336 0.504883 0.0985336 0.426758L0.332909 0.145508C0.395409 0.0517578 0.489159 0.00488281 0.614159 0.00488281C0.707909 0.00488281 0.786034 0.0361328 0.848534 0.0986328L14.8642 11.0439ZM6.96572 3.42676C7.1376 3.39551 7.31728 3.37988 7.50478 3.37988C8.20791 3.37988 8.80947 3.62988 9.30947 4.12988C9.8251 4.61426 10.0985 5.20801 10.1298 5.91113L6.96572 3.42676ZM8.04385 8.58301C7.87197 8.61426 7.69228 8.62988 7.50478 8.62988C6.80166 8.62988 6.19228 8.3877 5.67666 7.90332C5.17666 7.40332 4.91103 6.80176 4.87978 6.09863L8.04385 8.58301ZM7.50478 2.62988C7.08291 2.62988 6.62978 2.68457 6.14541 2.79395L5.04385 1.9502C5.87197 1.65332 6.69228 1.50488 7.50478 1.50488C8.44228 1.50488 9.34072 1.68457 10.2001 2.04395C11.0751 2.3877 11.8485 2.87207 12.5204 3.49707C13.1923 4.10645 13.747 4.8252 14.1845 5.65332C14.2313 5.7627 14.2548 5.87988 14.2548 6.00488C14.2548 6.12988 14.2313 6.24707 14.1845 6.35645C13.8407 6.99707 13.4267 7.58301 12.9423 8.11426L12.0517 7.41113C12.4579 6.98926 12.8017 6.52051 13.0829 6.00488C12.5048 4.95801 11.7157 4.1377 10.7157 3.54395C9.73135 2.93457 8.66103 2.62988 7.50478 2.62988ZM7.50478 9.37988C7.92666 9.37988 8.37978 9.3252 8.86416 9.21582L9.96572 10.0596C9.1376 10.3564 8.31728 10.5049 7.50478 10.5049C6.08291 10.5049 4.77822 10.1299 3.59072 9.37988C2.40322 8.61426 1.48135 7.60645 0.825096 6.35645C0.778221 6.24707 0.754784 6.12988 0.754784 6.00488C0.754784 5.87988 0.778221 5.7627 0.825096 5.65332C1.16885 5.0127 1.58291 4.42676 2.06728 3.89551L2.95791 4.59863C2.55166 5.02051 2.20791 5.48926 1.92666 6.00488C2.50478 7.05176 3.28603 7.87988 4.27041 8.48926C5.27041 9.08301 6.34853 9.37988 7.50478 9.37988Z" fill="black"/>
</svg>
