<svg width="38" height="32" viewBox="0 0 38 32" fill="none" xmlns="http://www.w3.org/2000/svg">
<g clip-path="url(#clip0_401_5)">
<path d="M37.041 15.2169C34.7772 12.251 32.0583 9.66198 28.9852 7.54601L34.2412 2.29005C34.7703 1.77901 34.785 0.93581 34.274 0.406663C33.7629 -0.122484 32.9197 -0.137157 32.3906 0.373884C32.3795 0.384576 32.3686 0.395503 32.3578 0.406663L26.6157 6.14346C24.1716 4.79827 21.4372 4.06691 18.6478 4.01228C8.52479 4.01228 0.587584 14.7586 0.254564 15.2168C-0.0848547 15.6837 -0.0848547 16.3162 0.254564 16.7831C2.51835 19.749 5.23721 22.338 8.31032 24.454L3.05436 29.7099C2.52521 30.221 2.51054 31.0642 3.02158 31.5933C3.53262 32.1225 4.37583 32.1372 4.90497 31.6261C4.91606 31.6154 4.92698 31.6045 4.93775 31.5933L10.6799 25.8565C13.124 27.2017 15.8584 27.9331 18.6477 27.9877C28.7708 27.9877 36.708 17.2414 37.041 16.7831C37.3805 16.3163 37.3805 15.6838 37.041 15.2169ZM10.247 22.5213C7.53362 20.7141 5.10141 18.5168 3.02908 16C4.98973 13.6251 11.3486 6.6762 18.6478 6.6762C20.7245 6.71819 22.7663 7.21854 24.627 8.14134L22.3147 10.4537C19.2553 8.42254 15.1286 9.25607 13.0975 12.3154C11.6179 14.544 11.6179 17.4423 13.0975 19.6709L10.247 22.5213ZM22.2441 14.2884C22.5048 14.8215 22.6415 15.4067 22.6437 16C22.6437 18.2069 20.8547 19.996 18.6478 19.996C18.0544 19.9937 17.4693 19.857 16.9362 19.5964L22.2441 14.2884ZM15.0515 17.7116C14.7908 17.1785 14.6542 16.5933 14.6519 16C14.6519 13.7931 16.4409 12.004 18.6478 12.004C19.2412 12.0063 19.8264 12.143 20.3594 12.4036L15.0515 17.7116ZM18.6478 25.3238C16.5711 25.2818 14.5294 24.7815 12.6686 23.8587L14.9809 21.5463C18.0403 23.5775 22.167 22.7439 24.1982 19.6846C25.6778 17.456 25.6778 14.5577 24.1982 12.3291L27.0486 9.47865C29.762 11.2859 32.1942 13.4833 34.2666 16C32.3058 18.375 25.947 25.3238 18.6478 25.3238Z" fill="black"/>
</g>
<defs>
<clipPath id="clip0_401_5">
<rect width="38" height="32" fill="white"/>
</clipPath>
</defs>
</svg>
