<svg width="38" height="25" viewBox="0 0 38 25" fill="none" xmlns="http://www.w3.org/2000/svg">
<g clip-path="url(#clip0_401_2)">
<path d="M37.4159 12.1026C37.0795 11.6424 29.0643 0.834961 18.8274 0.834961C8.59055 0.834961 0.574978 11.6424 0.238949 12.1021C-0.0796497 12.5387 -0.0796497 13.1308 0.238949 13.5674C0.574978 14.0275 8.59055 24.835 18.8274 24.835C29.0643 24.835 37.0795 14.0275 37.4159 13.5677C37.7349 13.1312 37.7349 12.5387 37.4159 12.1026ZM18.8274 22.3522C11.2869 22.3522 4.75596 15.1791 2.82267 12.8341C4.75346 10.4871 11.2707 3.31771 18.8274 3.31771C26.3676 3.31771 32.898 10.4896 34.8321 12.8358C32.9013 15.1828 26.3841 22.3522 18.8274 22.3522Z" fill="black"/>
<path d="M18.8275 5.38672C14.7205 5.38672 11.3792 8.72811 11.3792 12.835C11.3792 16.942 14.7205 20.2833 18.8275 20.2833C22.9344 20.2833 26.2758 16.942 26.2758 12.835C26.2758 8.72811 22.9344 5.38672 18.8275 5.38672ZM18.8275 17.8005C16.0894 17.8005 13.862 15.5731 13.862 12.835C13.862 10.097 16.0894 7.86954 18.8275 7.86954C21.5655 7.86954 23.793 10.097 23.793 12.835C23.793 15.5731 21.5656 17.8005 18.8275 17.8005Z" fill="black"/>
</g>
<defs>
<clipPath id="clip0_401_2">
<rect width="38" height="25" fill="white"/>
</clipPath>
</defs>
</svg>
